<?xml version="1.0" encoding="utf-8"?>
<svg version="1.1" xmlns:xlink="http://www.w3.org/1999/xlink" width="33px" height="33px" xmlns="http://www.w3.org/2000/svg">
  <g transform="matrix(1 0 0 1 -2384 -23 )">
    <path d="M 23.0558035714286 29.0315290178571  C 25.0814732142857 27.9573102678571  26.7449776785714 26.4994419642857  28.0463169642857 24.6579241071429  C 27.7762276785714 22.7550223214286  27.2391183035714 21.1743861607143  26.4349888392857 19.916015625  C 25.630859375 18.6576450892857  24.4983258928571 17.9302455357143  23.0373883928571 17.7338169642857  C 22.21484375 18.6422991071429  21.2357700892857 19.3512834821429  20.1001674107143 19.8607700892857  C 18.9645647321429 20.3702566964286  17.7645089285714 20.625  16.5 20.625  C 15.2354910714286 20.625  14.0354352678571 20.3702566964286  12.8998325892857 19.8607700892857  C 11.7642299107143 19.3512834821429  10.78515625 18.6422991071429  9.96261160714286 17.7338169642857  C 8.50167410714286 17.9302455357143  7.369140625 18.6576450892857  6.56501116071429 19.916015625  C 5.76088169642857 21.1743861607143  5.22377232142857 22.7550223214286  4.95368303571429 24.6579241071429  C 6.25502232142857 26.4994419642857  7.91852678571429 27.9573102678571  9.94419642857143 29.0315290178571  C 11.9698660714286 30.1057477678571  14.1551339285714 30.6428571428571  16.5 30.6428571428571  C 18.8448660714286 30.6428571428571  21.0301339285714 30.1057477678571  23.0558035714286 29.0315290178571  Z M 21.4997209821429 16.7854352678571  C 22.880859375 15.404296875  23.5714285714286 13.7377232142857  23.5714285714286 11.7857142857143  C 23.5714285714286 9.83370535714286  22.880859375 8.16713169642857  21.4997209821429 6.78599330357143  C 20.1185825892857 5.40485491071428  18.4520089285714 4.71428571428572  16.5 4.71428571428572  C 14.5479910714286 4.71428571428572  12.8814174107143 5.40485491071428  11.5002790178571 6.78599330357143  C 10.119140625 8.16713169642857  9.42857142857143 9.83370535714286  9.42857142857143 11.7857142857143  C 9.42857142857143 13.7377232142857  10.119140625 15.404296875  11.5002790178571 16.7854352678571  C 12.8814174107143 18.1665736607143  14.5479910714286 18.8571428571429  16.5 18.8571428571429  C 18.4520089285714 18.8571428571429  20.1185825892857 18.1665736607143  21.4997209821429 16.7854352678571  Z M 31.6925223214286 10.0915178571429  C 32.5641741071429 12.1294642857143  33 14.265625  33 16.5  C 33 18.734375  32.5641741071429 20.8674665178571  31.6925223214286 22.8992745535714  C 30.8208705357143 24.9310825892857  29.6515066964286 26.6866629464286  28.1844308035714 28.166015625  C 26.7173549107143 29.6453683035714  24.96484375 30.8208705357143  22.9268973214286 31.6925223214286  C 20.8889508928571 32.5641741071429  18.7466517857143 33  16.5 33  C 14.265625 33  12.1294642857143 32.5641741071429  10.0915178571429 31.6925223214286  C 8.05357142857143 30.8208705357143  6.29799107142857 29.6484375  4.82477678571429 28.1752232142857  C 3.3515625 26.7020089285714  2.17912946428571 24.9464285714286  1.30747767857143 22.9084821428571  C 0.435825892857143 20.8705357142857  0 18.734375  0 16.5  C 0 14.265625  0.435825892857143 12.1294642857143  1.30747767857143 10.0915178571429  C 2.17912946428571 8.05357142857143  3.3515625 6.29799107142857  4.82477678571429 4.82477678571428  C 6.29799107142857 3.3515625  8.05357142857143 2.17912946428571  10.0915178571429 1.30747767857143  C 12.1294642857143 0.435825892857143  14.265625 0  16.5 0  C 18.734375 0  20.8705357142857 0.435825892857143  22.9084821428571 1.30747767857143  C 24.9464285714286 2.17912946428571  26.7020089285714 3.3515625  28.1752232142857 4.82477678571428  C 29.6484375 6.29799107142857  30.8208705357143 8.05357142857143  31.6925223214286 10.0915178571429  Z " fill-rule="nonzero" fill="#ffffff" stroke="none" transform="matrix(1 0 0 1 2384 23 )" />
  </g>
</svg>