<?xml version="1.0" encoding="utf-8"?>
<svg version="1.1" xmlns:xlink="http://www.w3.org/1999/xlink" width="42px" height="42px" xmlns="http://www.w3.org/2000/svg">
  <g transform="matrix(1 0 0 1 -1006 -18 )">
    <path d="M 31.240234375 17.759765625  C 31.4134114583333 17.9329427083333  31.5 18.1380208333333  31.5 18.375  L 31.5 23.625  C 31.5 23.8619791666667  31.4134114583333 24.0670572916667  31.240234375 24.240234375  C 31.0670572916667 24.4134114583333  30.8619791666667 24.5  30.625 24.5  L 21 24.5  L 21 29.75  C 21 30.0052083333333  20.91796875 30.21484375  20.75390625 30.37890625  C 20.58984375 30.54296875  20.3802083333333 30.625  20.125 30.625  C 19.90625 30.625  19.6875 30.5338541666667  19.46875 30.3515625  L 10.74609375 21.62890625  C 10.58203125 21.46484375  10.5 21.2552083333333  10.5 21  C 10.5 20.7447916666667  10.58203125 20.53515625  10.74609375 20.37109375  L 19.49609375 11.62109375  C 19.66015625 11.45703125  19.8697916666667 11.375  20.125 11.375  C 20.3619791666667 11.375  20.5670572916667 11.4615885416667  20.740234375 11.634765625  C 20.9134114583333 11.8079427083333  21 12.0130208333333  21 12.25  L 21 17.5  L 30.625 17.5  C 30.8619791666667 17.5  31.0670572916667 17.5865885416667  31.240234375 17.759765625  Z M 33.87890625 28.46484375  C 35.2096354166667 26.1861979166667  35.875 23.6979166666667  35.875 21  C 35.875 18.3020833333333  35.2096354166667 15.8138020833333  33.87890625 13.53515625  C 32.5481770833333 11.2565104166667  30.7434895833333 9.45182291666666  28.46484375 8.12109375  C 26.1861979166667 6.79036458333333  23.6979166666667 6.125  21 6.125  C 18.3020833333333 6.125  15.8138020833333 6.79036458333333  13.53515625 8.12109375  C 11.2565104166667 9.45182291666666  9.45182291666667 11.2565104166667  8.12109375 13.53515625  C 6.79036458333333 15.8138020833333  6.125 18.3020833333333  6.125 21  C 6.125 23.6979166666667  6.79036458333333 26.1861979166667  8.12109375 28.46484375  C 9.45182291666667 30.7434895833333  11.2565104166667 32.5481770833333  13.53515625 33.87890625  C 15.8138020833333 35.2096354166667  18.3020833333333 35.875  21 35.875  C 23.6979166666667 35.875  26.1861979166667 35.2096354166667  28.46484375 33.87890625  C 30.7434895833333 32.5481770833333  32.5481770833333 30.7434895833333  33.87890625 28.46484375  Z M 39.18359375 10.458984375  C 41.0611979166667 13.6764322916667  42 17.1901041666667  42 21  C 42 24.8098958333333  41.0611979166667 28.3235677083333  39.18359375 31.541015625  C 37.3059895833333 34.7584635416667  34.7584635416667 37.3059895833333  31.541015625 39.18359375  C 28.3235677083333 41.0611979166667  24.8098958333333 42  21 42  C 17.1901041666667 42  13.6764322916667 41.0611979166667  10.458984375 39.18359375  C 7.24153645833333 37.3059895833333  4.69401041666667 34.7584635416667  2.81640625 31.541015625  C 0.938802083333333 28.3235677083333  0 24.8098958333333  0 21  C 0 17.1901041666667  0.938802083333333 13.6764322916667  2.81640625 10.458984375  C 4.69401041666667 7.24153645833333  7.24153645833333 4.69401041666666  10.458984375 2.81640625  C 13.6764322916667 0.93880208333333  17.1901041666667 0  21 0  C 24.8098958333333 0  28.3235677083333 0.93880208333333  31.541015625 2.81640625  C 34.7584635416667 4.69401041666666  37.3059895833333 7.24153645833333  39.18359375 10.458984375  Z " fill-rule="nonzero" fill="#4478ac" stroke="none" transform="matrix(1 0 0 1 1006 18 )" />
  </g>
</svg>