<?xml version="1.0" encoding="utf-8"?>
<svg version="1.1" xmlns:xlink="http://www.w3.org/1999/xlink" width="16px" height="16px" xmlns="http://www.w3.org/2000/svg">
  <g transform="matrix(1 0 0 1 0 -5 )">
    <path d="M 12.46875 9.13541666666667  C 12.6006944444444 9.00347222222222  12.6666666666667 8.84722222222222  12.6666666666667 8.66666666666667  L 12.6666666666667 7.33333333333333  C 12.6666666666667 7.15277777777778  12.6006944444444 6.99652777777778  12.46875 6.86458333333333  C 12.3368055555556 6.73263888888889  12.1805555555556 6.66666666666667  12 6.66666666666667  L 9.33333333333333 6.66666666666667  L 9.33333333333333 4  C 9.33333333333333 3.81944444444444  9.26736111111111 3.66319444444444  9.13541666666667 3.53125  C 9.00347222222222 3.39930555555556  8.84722222222222 3.33333333333333  8.66666666666667 3.33333333333333  L 7.33333333333333 3.33333333333333  C 7.15277777777778 3.33333333333333  6.99652777777778 3.39930555555556  6.86458333333333 3.53125  C 6.73263888888889 3.66319444444444  6.66666666666667 3.81944444444444  6.66666666666667 4  L 6.66666666666667 6.66666666666667  L 4 6.66666666666667  C 3.81944444444444 6.66666666666667  3.66319444444444 6.73263888888889  3.53125 6.86458333333333  C 3.39930555555556 6.99652777777778  3.33333333333333 7.15277777777778  3.33333333333333 7.33333333333333  L 3.33333333333333 8.66666666666667  C 3.33333333333333 8.84722222222222  3.39930555555556 9.00347222222222  3.53125 9.13541666666667  C 3.66319444444444 9.26736111111111  3.81944444444444 9.33333333333333  4 9.33333333333333  L 6.66666666666667 9.33333333333333  L 6.66666666666667 12  C 6.66666666666667 12.1805555555556  6.73263888888889 12.3368055555556  6.86458333333333 12.46875  C 6.99652777777778 12.6006944444444  7.15277777777778 12.6666666666667  7.33333333333333 12.6666666666667  L 8.66666666666667 12.6666666666667  C 8.84722222222222 12.6666666666667  9.00347222222222 12.6006944444444  9.13541666666667 12.46875  C 9.26736111111111 12.3368055555556  9.33333333333333 12.1805555555556  9.33333333333333 12  L 9.33333333333333 9.33333333333333  L 12 9.33333333333333  C 12.1805555555556 9.33333333333333  12.3368055555556 9.26736111111111  12.46875 9.13541666666667  Z M 14.9270833333333 3.984375  C 15.6423611111111 5.21006944444444  16 6.54861111111111  16 8  C 16 9.45138888888889  15.6423611111111 10.7899305555556  14.9270833333333 12.015625  C 14.2118055555556 13.2413194444444  13.2413194444444 14.2118055555556  12.015625 14.9270833333333  C 10.7899305555556 15.6423611111111  9.45138888888889 16  8 16  C 6.54861111111111 16  5.21006944444444 15.6423611111111  3.984375 14.9270833333333  C 2.75868055555556 14.2118055555556  1.78819444444444 13.2413194444444  1.07291666666667 12.015625  C 0.357638888888889 10.7899305555556  0 9.45138888888889  0 8  C 0 6.54861111111111  0.357638888888889 5.21006944444444  1.07291666666667 3.984375  C 1.78819444444444 2.75868055555556  2.75868055555556 1.78819444444444  3.984375 1.07291666666667  C 5.21006944444444 0.357638888888888  6.54861111111111 0  8 0  C 9.45138888888889 0  10.7899305555556 0.357638888888888  12.015625 1.07291666666667  C 13.2413194444444 1.78819444444444  14.2118055555556 2.75868055555556  14.9270833333333 3.984375  Z " fill-rule="nonzero" fill="#02a7f0" stroke="none" transform="matrix(1 0 0 1 0 5 )" />
  </g>
</svg>