<?xml version="1.0" encoding="utf-8"?>
<svg version="1.1" xmlns:xlink="http://www.w3.org/1999/xlink" width="26px" height="26px" xmlns="http://www.w3.org/2000/svg">
  <g transform="matrix(1 0 0 1 -26 -29 )">
    <path d="M 21.1065340909091 11.984375  C 21.2173295454545 12.0951704545455  21.2727272727273 12.2367424242424  21.2727272727273 12.4090909090909  L 21.2727272727273 13.5909090909091  C 21.2727272727273 13.7632575757576  21.2173295454545 13.9048295454545  21.1065340909091 14.015625  C 20.9957386363636 14.1264204545455  20.8541666666667 14.1818181818182  20.6818181818182 14.1818181818182  L 14.1818181818182 14.1818181818182  L 14.1818181818182 20.6818181818182  C 14.1818181818182 20.8541666666667  14.1264204545455 20.9957386363636  14.015625 21.1065340909091  C 13.9048295454545 21.2173295454545  13.7632575757576 21.2727272727273  13.5909090909091 21.2727272727273  L 12.4090909090909 21.2727272727273  C 12.2367424242424 21.2727272727273  12.0951704545455 21.2173295454545  11.984375 21.1065340909091  C 11.8735795454545 20.9957386363636  11.8181818181818 20.8541666666667  11.8181818181818 20.6818181818182  L 11.8181818181818 14.1818181818182  L 5.31818181818182 14.1818181818182  C 5.14583333333333 14.1818181818182  5.00426136363636 14.1264204545455  4.89346590909091 14.015625  C 4.78267045454546 13.9048295454545  4.72727272727273 13.7632575757576  4.72727272727273 13.5909090909091  L 4.72727272727273 12.4090909090909  C 4.72727272727273 12.2367424242424  4.78267045454546 12.0951704545455  4.89346590909091 11.984375  C 5.00426136363636 11.8735795454545  5.14583333333333 11.8181818181818  5.31818181818182 11.8181818181818  L 11.8181818181818 11.8181818181818  L 11.8181818181818 5.31818181818182  C 11.8181818181818 5.14583333333333  11.8735795454545 5.00426136363636  11.984375 4.89346590909091  C 12.0951704545455 4.78267045454546  12.2367424242424 4.72727272727273  12.4090909090909 4.72727272727273  L 13.5909090909091 4.72727272727273  C 13.7632575757576 4.72727272727273  13.9048295454545 4.78267045454546  14.015625 4.89346590909091  C 14.1264204545455 5.00426136363636  14.1818181818182 5.14583333333333  14.1818181818182 5.31818181818182  L 14.1818181818182 11.8181818181818  L 20.6818181818182 11.8181818181818  C 20.8541666666667 11.8181818181818  20.9957386363636 11.8735795454545  21.1065340909091 11.984375  Z M 22.7684659090909 22.7684659090909  C 23.3470643939394 22.1898674242424  23.6363636363636 21.4943181818182  23.6363636363636 20.6818181818182  L 23.6363636363636 5.31818181818182  C 23.6363636363636 4.50568181818182  23.3470643939394 3.81013257575757  22.7684659090909 3.23153409090909  C 22.1898674242424 2.6529356060606  21.4943181818182 2.36363636363636  20.6818181818182 2.36363636363636  L 5.31818181818182 2.36363636363636  C 4.50568181818182 2.36363636363636  3.81013257575758 2.6529356060606  3.23153409090909 3.23153409090909  C 2.65293560606061 3.81013257575757  2.36363636363636 4.50568181818182  2.36363636363636 5.31818181818182  L 2.36363636363636 20.6818181818182  C 2.36363636363636 21.4943181818182  2.65293560606061 22.1898674242424  3.23153409090909 22.7684659090909  C 3.81013257575758 23.3470643939394  4.50568181818182 23.6363636363636  5.31818181818182 23.6363636363636  L 20.6818181818182 23.6363636363636  C 21.4943181818182 23.6363636363636  22.1898674242424 23.3470643939394  22.7684659090909 22.7684659090909  Z M 24.4396306818182 1.56036931818182  C 25.4798768939394 2.60061553030303  26 3.85321969696969  26 5.31818181818182  L 26 20.6818181818182  C 26 22.1467803030303  25.4798768939394 23.399384469697  24.4396306818182 24.4396306818182  C 23.399384469697 25.4798768939394  22.1467803030303 26  20.6818181818182 26  L 5.31818181818182 26  C 3.8532196969697 26  2.60061553030303 25.4798768939394  1.56036931818182 24.4396306818182  C 0.520123106060606 23.399384469697  0 22.1467803030303  0 20.6818181818182  L 0 5.31818181818182  C 0 3.85321969696969  0.520123106060606 2.60061553030303  1.56036931818182 1.56036931818182  C 2.60061553030303 0.520123106060604  3.8532196969697 0  5.31818181818182 0  L 20.6818181818182 0  C 22.1467803030303 0  23.399384469697 0.520123106060604  24.4396306818182 1.56036931818182  Z " fill-rule="nonzero" fill="#ffffff" stroke="none" transform="matrix(1 0 0 1 26 29 )" />
  </g>
</svg>